<svg xmlns="http://www.w3.org/2000/svg" width="120" height="120" viewBox="0 0 1500 1500" fill="#ff6633"><defs><clipPath id="dot-clip"><path d="M 1145.5 406 C 1097.7 406 1059 444.8 1059 492.6 C 1059 540.4 1097.7 579.2 1145.5 579.2 C 1193.3 579.2 1232 540.4 1232 492.6 C 1232 444.8 1193.3 406 1145.5 406Z"/></clipPath></defs><g transform="translate(76, 0)"><g transform="translate(111.107, 1124.661)"><path d="M 1299.953125 -516.296875 C 1309.171875 -508.609375 1314.160156 -498.617188 1314.921875 -486.328125 C 1315.691406 -474.035156 1312.238281 -463.28125 1304.5625 -454.0625 C 1109.414062 -225.113281 954.988281 -132.148438 841.28125 -175.171875 C 759.84375 -205.898438 716.050781 -303.472656 709.90625 -467.890625 C 693 -437.160156 674.941406 -402.203125 655.734375 -363.015625 C 636.523438 -323.835938 620.773438 -291.953125 608.484375 -267.359375 C 599.265625 -244.316406 590.046875 -223.570312 580.828125 -205.125 C 571.609375 -186.6875 563.15625 -171.320312 555.46875 -159.03125 C 550.863281 -149.8125 542.796875 -136.363281 531.265625 -118.6875 C 519.742188 -101.019531 505.144531 -85.65625 487.46875 -72.59375 C 469.800781 -59.539062 449.445312 -56.085938 426.40625 -62.234375 C 398.75 -69.910156 378.003906 -90.265625 364.171875 -123.296875 C 350.335938 -156.335938 341.882812 -192.453125 338.8125 -231.640625 C 335.738281 -270.828125 334.203125 -302.710938 334.203125 -327.296875 C 334.203125 -347.265625 334.203125 -366.46875 334.203125 -384.90625 C 334.203125 -403.351562 334.972656 -420.257812 336.515625 -435.625 C 282.734375 -358.789062 231.253906 -279.269531 182.078125 -197.0625 C 132.910156 -114.851562 80.671875 -20.738281 25.359375 85.28125 C 6.910156 120.625 -13.066406 138.296875 -34.578125 138.296875 C -42.253906 138.296875 -49.164062 135.988281 -55.3125 131.375 C -63 128.300781 -69.914062 123.304688 -76.0625 116.390625 C -82.207031 109.484375 -85.660156 95.65625 -86.421875 74.90625 C -87.191406 54.164062 -84.117188 22.285156 -77.203125 -20.734375 C -70.296875 -63.765625 -56.851562 -123.695312 -36.875 -200.53125 C -13.832031 -294.257812 13.4375 -387.21875 44.9375 -479.40625 C 76.4375 -571.601562 108.320312 -654.582031 140.59375 -728.34375 C 145.207031 -740.632812 153.273438 -749.082031 164.796875 -753.6875 C 176.316406 -758.300781 187.457031 -757.535156 198.21875 -751.390625 C 210.507812 -746.773438 218.578125 -738.707031 222.421875 -727.1875 C 226.265625 -715.664062 225.878906 -704.523438 221.265625 -693.765625 C 179.773438 -596.960938 142.507812 -495.929688 109.46875 -390.671875 C 76.4375 -285.421875 50.703125 -193.613281 32.265625 -115.25 C 79.898438 -199.757812 126.765625 -278.503906 172.859375 -351.484375 C 218.960938 -424.472656 267.367188 -495.539062 318.078125 -564.6875 C 322.679688 -570.832031 330.742188 -579.285156 342.265625 -590.046875 C 353.796875 -600.804688 369.550781 -603.113281 389.53125 -596.96875 C 409.5 -589.28125 420.632812 -574.679688 422.9375 -553.171875 C 425.25 -531.660156 425.632812 -495.550781 424.09375 -444.84375 C 424.09375 -427.9375 423.707031 -409.492188 422.9375 -389.515625 C 422.175781 -369.546875 421.796875 -348.804688 421.796875 -327.296875 C 421.796875 -281.191406 424.867188 -243.539062 431.015625 -214.34375 C 437.160156 -185.15625 442.535156 -165.179688 447.140625 -154.421875 C 450.210938 -157.492188 454.4375 -162.867188 459.8125 -170.546875 C 465.195312 -178.234375 471.726562 -188.226562 479.40625 -200.53125 C 485.5625 -211.28125 492.863281 -225.875 501.3125 -244.3125 C 509.757812 -262.75 519.363281 -282.726562 530.125 -304.25 C 570.070312 -390.289062 602.722656 -456.359375 628.078125 -502.453125 C 653.429688 -548.554688 675.328125 -580.054688 693.765625 -596.953125 C 712.203125 -613.859375 731.410156 -620.007812 751.390625 -615.40625 C 775.972656 -609.257812 790.1875 -594.273438 794.03125 -570.453125 C 797.875 -546.640625 799.796875 -527.816406 799.796875 -513.984375 C 798.253906 -441.765625 804.015625 -383.375 817.078125 -338.8125 C 830.140625 -294.25 848.960938 -267.359375 873.546875 -258.140625 C 901.203125 -247.390625 945.378906 -259.679688 1006.078125 -295.015625 C 1066.773438 -330.359375 1143.988281 -402.582031 1237.71875 -511.6875 C 1245.40625 -520.90625 1255.394531 -525.894531 1267.6875 -526.65625 C 1279.976562 -527.425781 1290.734375 -523.972656 1299.953125 -516.296875Z"/></g><rect x="1059" y="406" width="173" height="173.2" rx="86.6" ry="86.6"/></g></svg>
